<svg width="48" height="48" viewBox="0 0 48 48" fill="none" xmlns="http://www.w3.org/2000/svg">
<path d="M41.9148 8.11741H35.6704L35.3003 2.89063C35.3003 2.65935 35.1616 2.42808 34.9766 2.24306C34.7915 2.05804 34.514 1.96553 34.2827 2.01179L5.88236 4.00074C5.37355 4.04699 4.95726 4.46329 5.00352 5.01834L7.50127 40.912C7.54752 41.4208 7.96382 41.7908 8.47262 41.7908H8.51887L12.4968 41.5133V45.0287C12.4968 45.5375 12.9131 46 13.4681 46H41.961C42.4698 46 42.9324 45.5837 42.9324 45.0287V9.0425C42.8399 8.5337 42.4236 8.11741 41.9148 8.11741ZM12.4968 9.0425V39.5706L9.35146 39.8019L6.99247 5.80467L33.4964 3.95448L33.7739 8.07115H13.4219C12.9131 8.11741 12.4968 8.5337 12.4968 9.0425ZM40.9434 44.0573H14.3932V10.0138H40.9897V44.0573H40.9434Z" fill="white"/>
<path d="M18.8337 16.767H26.1881C26.697 16.767 27.1595 16.3507 27.1595 15.7957C27.1595 15.2869 26.7432 14.8243 26.1881 14.8243H18.8337C18.3249 14.8243 17.8623 15.2406 17.8623 15.7957C17.8623 16.3507 18.2786 16.767 18.8337 16.767Z" fill="white"/>
<path d="M18.8337 21.2537H36.5492C37.058 21.2537 37.5205 20.8374 37.5205 20.2824C37.5205 19.7736 37.1043 19.311 36.5492 19.311H18.8337C18.3249 19.311 17.8623 19.7273 17.8623 20.2824C17.8623 20.8374 18.2786 21.2537 18.8337 21.2537Z" fill="white"/>
<path d="M18.8337 25.7404H36.5492C37.058 25.7404 37.5205 25.3241 37.5205 24.7691C37.5205 24.2603 37.1043 23.7977 36.5492 23.7977H18.8337C18.3249 23.7977 17.8623 24.214 17.8623 24.7691C17.8623 25.3241 18.2786 25.7404 18.8337 25.7404Z" fill="white"/>
<path d="M18.8337 30.2272H36.5492C37.058 30.2272 37.5205 29.8109 37.5205 29.2558C37.5205 28.747 37.1043 28.2845 36.5492 28.2845H18.8337C18.3249 28.2845 17.8623 28.7008 17.8623 29.2558C17.8623 29.8109 18.2786 30.2272 18.8337 30.2272Z" fill="white"/>
<path d="M18.8337 34.7139H36.5492C37.058 34.7139 37.5205 34.2976 37.5205 33.7425C37.5205 33.2337 37.1043 32.7712 36.5492 32.7712H18.8337C18.3249 32.7712 17.8623 33.1875 17.8623 33.7425C17.8623 34.2513 18.2786 34.7139 18.8337 34.7139Z" fill="white"/>
<path d="M36.5029 37.2579H31.7387C31.2299 37.2579 30.7673 37.6742 30.7673 38.2292C30.7673 38.7843 31.1836 39.2006 31.7387 39.2006H36.5029C37.0117 39.2006 37.4743 38.7843 37.4743 38.2292C37.4743 37.6742 37.058 37.2579 36.5029 37.2579Z" fill="white"/>
</svg>
